<svg xmlns="http://www.w3.org/2000/svg" viewBox="0 0 150 60"><defs><style>.cls-1{fill:#f47f20;}.cls-2{fill:#f89c1c;}.cls-3{fill:#ffc609;}.cls-4{fill:#fff;}.cls-5{fill:#6e7070;}</style></defs><g id="Layer_3" data-name="Layer 3"><path class="cls-1" d="M57.45,23.88a5.29,5.29,0,0,0-.06-.8,8.28,8.28,0,0,0-.34-1.57,9.08,9.08,0,0,0-.46-1.12,7.87,7.87,0,0,0-.39-.7,6.11,6.11,0,0,0-.46-.67l-.26-.32A8.16,8.16,0,0,0,54,17.29c-.23-.16-.47-.32-.72-.46l-3.05-1.74-6.46-3.7L37.62,7.9,35,6.4l-1.53-.88c-.37-.21-.75-.41-1.14-.59l-.77-.35a17.41,17.41,0,0,0-2.38-.78l-.81-.18L28,3.55a14.89,14.89,0,0,0-1.62-.19c-.27,0-.54,0-.81,0s-.81,0-1.21,0-1.07.08-1.6.15l-.8.14-.39.08c-.39.09-.78.19-1.17.31s-.51.16-.76.25-.5.18-.75.28A16.19,16.19,0,0,0,16,6l-.67.46c-.33.24-.65.49-1,.76l-.61.54a16.85,16.85,0,0,0-3.12,4L3.47,24.26A16.75,16.75,0,0,0,9.7,47.11l12.5,7.14a15.47,15.47,0,0,0,1.92.94l.78.31a17.78,17.78,0,0,0,2.32.64h.08c.27.06.54.1.81.14l.81.1.81.06a17,17,0,0,0,2,0l.23,0,.57-.06.4-.06.79-.13c.26-.06.53-.11.79-.18a11.59,11.59,0,0,0,1.15-.33l.76-.26.75-.31c.24-.1.49-.22.73-.34A13.93,13.93,0,0,0,39.33,54,16.7,16.7,0,0,0,45.05,48l11.3-19.77.21-.38.18-.38c.09-.22.18-.43.25-.65l.08-.23c.06-.21.12-.42.17-.63s.08-.35.11-.53a8.77,8.77,0,0,0,.1-1.15h0a2.81,2.81,0,0,0,0-.41Z"></path><path class="cls-1" d="M21,49.88,9.84,30.05A8.37,8.37,0,0,1,13,18.64L32.81,7.43A16,16,0,0,1,35,6.4l-1.53-.88c-.37-.21-.75-.41-1.14-.59l-.77-.35a17.41,17.41,0,0,0-2.38-.78l-.81-.18L28,3.55a14.89,14.89,0,0,0-1.62-.19c-.27,0-.54,0-.81,0s-.81,0-1.21,0-1.07.08-1.6.15l-.8.14-.39.08c-.39.09-.78.19-1.17.31s-.51.16-.76.25-.5.18-.75.28A16.19,16.19,0,0,0,16,6l-.67.46c-.33.24-.65.49-1,.76l-.61.54a16.85,16.85,0,0,0-3.12,4L3.47,24.26A16.75,16.75,0,0,0,9.7,47.11l12.5,7.14a15.47,15.47,0,0,0,1.92.94l.78.31a17.78,17.78,0,0,0,2.32.64A16.76,16.76,0,0,1,21,49.88Z"></path><path class="cls-2" d="M28.11,56.29l.81.1.81.06a17,17,0,0,0,2,0l.23,0a7.47,7.47,0,0,1-2.74-2.86l-15-24.6a7.52,7.52,0,0,1,3-10.21L35.2,9a16.55,16.55,0,0,1,2.42-1L35,6.4a16,16,0,0,0-2.18,1L13,18.64A8.37,8.37,0,0,0,9.84,30.05L21,49.88a16.76,16.76,0,0,0,6.19,6.26h.08c.27.06.54.1.81.14Z"></path><path class="cls-3" d="M43.73,11.39,37.62,7.9A16.55,16.55,0,0,0,35.2,9l-18,9.78a7.52,7.52,0,0,0-3,10.21l15,24.6A7.47,7.47,0,0,0,32,56.4l.57-.06.4-.06.79-.13c.26-.06.53-.11.79-.18a11.59,11.59,0,0,0,1.15-.33l.76-.26.75-.31c.24-.1.49-.22.73-.34A13.93,13.93,0,0,0,39.33,54,16.7,16.7,0,0,0,45.05,48l11.3-19.77.21-.38.18-.38c.09-.22.18-.43.25-.65l.08-.23c.06-.21.12-.42.17-.63s.08-.35.11-.53a8.77,8.77,0,0,0,.1-1.15h0a2.81,2.81,0,0,0,0-.41,5.29,5.29,0,0,0-.06-.8,8.28,8.28,0,0,0-.34-1.57,9.08,9.08,0,0,0-.46-1.12,7.87,7.87,0,0,0-.39-.7,6.11,6.11,0,0,0-.46-.67l-.26-.32A8.16,8.16,0,0,0,54,17.29c-.23-.16-.47-.32-.72-.46l-3.05-1.74-6.46-3.7Z"></path><path class="cls-4" d="M42,34h0l-.35-.18,0,0L42,34Z"></path><path class="cls-4" d="M48.17,27.31a1.89,1.89,0,0,0-1.32.53h0l-.23.26-3.05,3.5L41.6,33.83,42,34h0l-.37-.16,0,0-8-4.2v0h0A1.93,1.93,0,1,0,31.69,33l5.67,3,2.23,1.13-.93,2.38-2.28,5.81-1.57-2.19-.35-.48v0l.35.49a4.73,4.73,0,0,0-6-2l6.5,9.5h0a1.93,1.93,0,0,0,3.34-.63l-.05.12h0l.05-.12,5-12.62,5.72-6.59a1.92,1.92,0,0,0,.68-1.47,1.94,1.94,0,0,0-1.93-1.94Z"></path><path class="cls-4" d="M26.66,26l-.05,0h0l-3.83-2,3.8-2,.05,0a1.94,1.94,0,0,0-.75-3.72,1.83,1.83,0,0,0-.84.2h0l-2.12,1.14-5,2.64v.06A1.93,1.93,0,0,0,18,25.72l-.2-.1h0l.2.1L25,29.44h0a2,2,0,0,0,.91.22A1.93,1.93,0,0,0,26.66,26Z"></path><path class="cls-4" d="M53,21a2.27,2.27,0,1,0,2.26,2.26A2.26,2.26,0,0,0,53,21Z"></path><path class="cls-4" d="M44.25,16,41,14.31l-3.21-1.73-.11-.06L36.81,12l-6.17,3.33,0,0h0a2,2,0,0,0-1,1.7A1.92,1.92,0,0,0,31.54,19a2,2,0,0,0,.84-.19h0l.75-.42,1.79-.94v7.68h0v.05a1.93,1.93,0,1,0,3.86,0v-.05h0V17.51l4.26,2.26.26.14h0A4.72,4.72,0,0,0,49.2,18.7l-5-2.66Z"></path><path d="M69.36,16.26H66.81v7.86H65V16.26H62.41V14.6h7Z"></path><path d="M77.88,24.12H76V20.27H72.53v3.85H70.67V14.6h1.86v4H76v-4h1.86Z"></path><path d="M86.23,24.12H82.87a3.52,3.52,0,0,1-2.26-.56A2.46,2.46,0,0,1,80,21.61v-7h6.27v1.66H81.82v2.23h3.09l-.13,1.66h-3v1.32a1,1,0,0,0,.26.78,1.46,1.46,0,0,0,.92.21h3.23Z"></path><path d="M99.71,14.6l-2.86,5.62v3.9H95v-3.9L92.15,14.6h2l1.77,3.84L97.7,14.6Z"></path><path d="M107.13,24.12h-3.37a3.49,3.49,0,0,1-2.25-.56,2.46,2.46,0,0,1-.65-1.95v-7h6.27v1.66h-4.41v2.23h3.09l-.13,1.66h-3v1.32a1,1,0,0,0,.25.78,1.51,1.51,0,0,0,.93.21h3.23Z"></path><path d="M114.82,24.12H112a3.56,3.56,0,0,1-2.32-.62,2.59,2.59,0,0,1-.71-2V14.6h1.86v6.87a1,1,0,0,0,.25.78,1.5,1.5,0,0,0,.92.21h2.84Z"></path><path d="M122.17,24.12h-2.83A3.52,3.52,0,0,1,117,23.5a2.56,2.56,0,0,1-.72-2V14.6h1.86v6.87a1,1,0,0,0,.25.78,1.51,1.51,0,0,0,.93.21h2.83Z"></path><path d="M130.63,18.92v.72a5.42,5.42,0,0,1-.9,3.48,3.57,3.57,0,0,1-2.89,1.08A3.52,3.52,0,0,1,124,23.12a5.51,5.51,0,0,1-.89-3.52v-.69a5.13,5.13,0,0,1,.9-3.31,4.32,4.32,0,0,1,5.74,0A5,5,0,0,1,130.63,18.92Zm-1.86.68v-.49a5.27,5.27,0,0,0-.32-2.05,1.54,1.54,0,0,0-1.6-.88,1.56,1.56,0,0,0-1.62.88,5.48,5.48,0,0,0-.31,2.05v.49a3.88,3.88,0,0,0,.49,2.33,1.45,1.45,0,0,0,.55.43,2,2,0,0,0,.88.18,2.09,2.09,0,0,0,.88-.17,1.57,1.57,0,0,0,.56-.43,1.81,1.81,0,0,0,.31-.67A6.39,6.39,0,0,0,128.77,19.6Z"></path><path d="M142.93,14.6l-2.55,9.52h-1.55l-1.75-5.77-1.76,5.77h-1.55l-2.54-9.52h1.94l1.47,6,1.46-5c.16-.74.5-1.1,1-1.1a.66.66,0,0,1,.58.28,2.88,2.88,0,0,1,.37.82l1.44,5,1.48-6Z"></path><path d="M69.59,36.27a2.53,2.53,0,0,1-1,2.12,4,4,0,0,1-2.52.77,4.55,4.55,0,0,1-2.36-.67,2.72,2.72,0,0,1-.92-1,2.89,2.89,0,0,1-.36-1.45L64.12,36a1.27,1.27,0,0,0,.62,1.12,2.41,2.41,0,0,0,1.36.4c1.12,0,1.67-.39,1.67-1.17s-.38-1-1.13-1.14L65.09,35a3.31,3.31,0,0,1-1.85-.83,2.5,2.5,0,0,1-.68-1.88,2.54,2.54,0,0,1,1-2,3.82,3.82,0,0,1,2.47-.8,3.58,3.58,0,0,1,2.4.76,2.39,2.39,0,0,1,.91,1.94l-1.66.08a1.39,1.39,0,0,0-1.56-1.16,2.09,2.09,0,0,0-1.28.35,1,1,0,0,0-.46.82.9.9,0,0,0,.34.75,1.65,1.65,0,0,0,.82.34l1.53.16A2.56,2.56,0,0,1,69.59,36.27Z"></path><path d="M77.26,31.22H74.71v7.86H72.85V31.22H70.31V29.56h7Z"></path><path d="M85.91,39.08H83.76L81.9,35.55H80.57v3.53H78.71V31.61a2.12,2.12,0,0,1,.49-1.56,2.35,2.35,0,0,1,1.66-.49h1.58a2.92,2.92,0,0,1,3.09,3.05A2.73,2.73,0,0,1,85,34.27a2.51,2.51,0,0,1-1.23,1Zm-2.62-5.49a1.44,1.44,0,0,0,.38-1,1.34,1.34,0,0,0-.37-1,1.35,1.35,0,0,0-1-.37H81.4a.74.74,0,0,0-.83.84V34h1.75A1.29,1.29,0,0,0,83.29,33.59Z"></path><path d="M94.67,39.08H92.73l-.53-1.64H89l-.52,1.64H86.54l3-8.72a1.36,1.36,0,0,1,.45-.62,1,1,0,0,1,.61-.18,1,1,0,0,1,.58.16,1.38,1.38,0,0,1,.39.64Zm-2.9-3.21L90.65,32.1l-1.18,3.77Z"></path><path d="M106.65,29.56l-2.56,9.52h-1.55l-1.75-5.77L99,39.08H97.49L95,29.56h1.94l1.47,6,1.46-5c.16-.73.49-1.1,1-1.1a.67.67,0,0,1,.59.28,3.38,3.38,0,0,1,.36.82l1.44,5,1.49-6Z"></path><path d="M114.73,36.34A2.47,2.47,0,0,1,112,39.08h-1.28a3.52,3.52,0,0,1-2.24-.55,2.35,2.35,0,0,1-.66-1.9V29.56h4a2.82,2.82,0,0,1,2,.68,2.6,2.6,0,0,1,.69,1.93,2,2,0,0,1-.37,1.23,2.1,2.1,0,0,1-.81.72A2.23,2.23,0,0,1,114.73,36.34Zm-3-3.06a1,1,0,0,0,0-2.06h-2v2.06Zm1.17,3a1.71,1.71,0,0,0-.23-1,.92.92,0,0,0-.82-.33h-2.14v1.5a.92.92,0,0,0,.28.76,1.49,1.49,0,0,0,.9.21h1Q112.88,37.42,112.88,36.25Z"></path><path d="M122.9,39.08h-3.37a3.49,3.49,0,0,1-2.25-.55,2.5,2.5,0,0,1-.65-2v-7h6.27v1.66h-4.41v2.23h3.09l-.13,1.66h-3v1.32a1,1,0,0,0,.25.78,1.51,1.51,0,0,0,.93.21h3.23Z"></path><path d="M131.93,39.08h-2.16l-1.85-3.53h-1.34v3.53h-1.86V31.61a2.08,2.08,0,0,1,.5-1.56,2.31,2.31,0,0,1,1.65-.49h1.58a2.92,2.92,0,0,1,3.09,3.05,2.79,2.79,0,0,1-.5,1.66,2.57,2.57,0,0,1-1.24,1Zm-2.63-5.49a1.44,1.44,0,0,0,.38-1,1.27,1.27,0,0,0-1.35-1.36h-.92a.74.74,0,0,0-.83.84V34h1.75A1.29,1.29,0,0,0,129.3,33.59Z"></path><path d="M140.67,39.08h-2.15l-1.86-3.53h-1.34v3.53h-1.86V31.61a2.12,2.12,0,0,1,.5-1.56,2.32,2.32,0,0,1,1.65-.49h1.58a3,3,0,0,1,2.26.86,3.06,3.06,0,0,1,.83,2.19,2.79,2.79,0,0,1-.5,1.66,2.53,2.53,0,0,1-1.24,1ZM138,33.59a1.44,1.44,0,0,0,.38-1,1.27,1.27,0,0,0-1.35-1.36h-.92a.74.74,0,0,0-.83.84V34h1.75A1.28,1.28,0,0,0,138,33.59Z"></path><path d="M148.7,29.56l-2.86,5.62v3.9H144v-3.9l-2.86-5.62h2l1.78,3.84,1.75-3.84Z"></path><path class="cls-5" d="M63.81,49.55V45.12H62.09v-.45h4v.45H64.33v4.43Z"></path><path class="cls-5" d="M67.38,49.55h-.51V44.67h.51Zm3.11-2.25H67.33v-.45h3.16Zm0-2.63H71v4.88h-.51Z"></path><path class="cls-5" d="M72.54,49.55V44.67h.52v4.88Z"></path><path class="cls-5" d="M74.65,49.55V44.67h.43l3.37,4.24h-.23V44.67h.51v4.88h-.42l-3.37-4.24h.23v4.24Z"></path><path class="cls-5" d="M80.32,49.55V44.67h.52v4.88Zm.45-1.21,0-.63,3-3h.59l-2.15,2.26-.3.31Zm3.07,1.21-2.11-2.43.35-.37,2.37,2.8Z"></path><path class="cls-5" d="M89.09,49.6a2,2,0,0,1-1.48-.54,2.16,2.16,0,0,1-.54-1.59v-2.8h.52v2.78A1.79,1.79,0,0,0,88,48.72a1.44,1.44,0,0,0,1.11.42,1.47,1.47,0,0,0,1.11-.42,1.79,1.79,0,0,0,.39-1.27V44.67h.5v2.8a2.16,2.16,0,0,1-.54,1.59A2,2,0,0,1,89.09,49.6Z"></path><path class="cls-5" d="M92.64,49.55V44.67h.43l3.37,4.24h-.22V44.67h.51v4.88H96.3l-3.36-4.24h.22v4.24Z"></path><path class="cls-5" d="M99.27,49.55V45.12H97.55v-.45h4v.45H99.78v4.43Z"></path><path class="cls-5" d="M102.84,49.55h-.51V44.67h.51ZM106,47.3h-3.16v-.45H106Zm0-2.63h.51v4.88h-.51Z"></path><path class="cls-5" d="M108,49.55V44.67h.52v4.88Z"></path><path class="cls-5" d="M110.11,49.55V44.67h.42l3.38,4.24h-.23V44.67h.51v4.88h-.42l-3.37-4.24h.23v4.24Z"></path><path class="cls-5" d="M115.78,49.55V44.67h.52v4.88Zm.45-1.21,0-.63,3-3h.59l-2.16,2.26-.29.31Zm3.06,1.21-2.1-2.43.34-.37,2.38,2.8Z"></path><path class="cls-5" d="M120,49.55l2.24-4.88h.51l2.23,4.88h-.54L122.34,45h.21l-2,4.58Zm.88-1.3.16-.42h2.84l.15.42Z"></path><path class="cls-5" d="M125.75,49.55V44.67h2.11a2.13,2.13,0,0,1,1.27.33,1.07,1.07,0,0,1,.45.92,1.18,1.18,0,0,1-.19.67,1.14,1.14,0,0,1-.5.42,1.75,1.75,0,0,1-.7.14l.12-.17a2.21,2.21,0,0,1,.81.14,1.25,1.25,0,0,1,.53.43,1.28,1.28,0,0,1,.18.7,1.14,1.14,0,0,1-.45,1,2.3,2.3,0,0,1-1.38.34Zm.52-.42H128a1.91,1.91,0,0,0,1-.22.89.89,0,0,0,0-1.4,1.91,1.91,0,0,0-1-.22h-1.78v-.42h1.61a1.57,1.57,0,0,0,.91-.23.84.84,0,0,0,0-1.33,1.65,1.65,0,0,0-.91-.22h-1.55Z"></path><path class="cls-5" d="M131,49.55V44.67h.52v4.44h2.74v.44Z"></path><path class="cls-5" d="M135.64,49.11h2.94v.44h-3.45V44.67h3.35v.45h-2.84Zm0-2.26h2.58v.44h-2.58Z"></path></g></svg>